<?xml version="1.0" encoding="utf-8"?>
<!-- Generator: Adobe Illustrator 23.0.0, SVG Export Plug-In . SVG Version: 6.00 Build 0)  -->
<svg version="1.1" id="图层_1" xmlns="http://www.w3.org/2000/svg" xmlns:xlink="http://www.w3.org/1999/xlink" x="0px" y="0px"
	 viewBox="0 0 213 35" style="enable-background:new 0 0 213 35;" xml:space="preserve">
<style type="text/css">
	.st0{display:none;}
	.st1{fill:#FFFFFF;}
	.st2{font-family:'SourceHanSansCN-Bold-GBpc-EUC-H';}
	.st3{font-size:11.257px;}
	.st4{fill:#BF8B30;}
	.st5{fill-rule:evenodd;clip-rule:evenodd;fill:#D19637;fill-opacity:0.302;}
	.st6{fill-rule:evenodd;clip-rule:evenodd;fill:#BF8B30;}
</style>
<rect x="-43" y="-62" class="st0" width="311" height="140"/>
<text transform="matrix(1 0 0 1 16.9424 33.7852)" class="st1 st2 st3">X</text>
<text transform="matrix(1 0 0 1 78.9424 33.7852)" class="st1 st2 st3">X</text>
<text transform="matrix(1 0 0 1 141.9424 34.7852)" class="st1 st2 st3">X</text>
<text transform="matrix(1 0 0 1 203.9424 34.7852)" class="st1 st2 st3">X</text>
<path class="st4" d="M203.5,11.3c-0.1,0.2,0,0.4,0.2,0.7c0.2,0.3,0.1,0.6-0.2,1.1l-1.3,1.6c-0.3,0.4-0.7,0.6-1.3,0.7l0.4-0.6l0.2,0
	l1.4-1.9l-0.3-0.7l-1-0.9c-0.4-0.3-0.7-0.5-1.1-0.6l-0.9-0.1l-1.3,1.8l-0.4,0.6h0.2l-0.9,1.1l-0.5-1c-0.2-0.7-0.3-1.3-0.1-1.8
	l0.5-0.9c0.2-0.4,0.2-0.9,0-1.6l0.5,0.2c0.4,0.2,0.6,0.5,0.8,0.9l0.1,1.1l0,0.4l0.6-1.4c0-0.3-0.1-0.7-0.5-1.3l-0.9-1.1
	c-0.2-0.2-0.2-0.8-0.2-1.7c0-0.9,0.2-1.5,0.4-1.8c0.1,0.6,0.3,1.1,0.7,1.5c0.2,0.2,0.8,0.5,1.8,0.7c0.4,0.1,0.6,0.3,0.7,0.7l0.3,0.9
	l0.5,0.6c0.2,0.2,0.3,0.3,0.4,0.2c0.1-0.1,0-0.4-0.3-0.9c-0.4-0.5-0.3-1.1,0.2-1.8c0.1,0.3,0.4,0.7,1,1.2c0.6,0.6,1,1.1,1.1,1.7
	l0,0.8l-0.3,1L203.5,11.3z M201.2,14.4l1.2-1.7l-0.2-0.5l-0.9-0.8c-0.4-0.2-0.7-0.4-1-0.5l-0.6,0l-1.2,1.7h0v0.2l-3.2,3.9l-0.7,0.5
	l-1.2,0.6c-1.2,0.6-2,1.2-2.5,1.8l-7.1,10c-0.1,0.3,0,0.7,0.5,1.4c0.5,0.7,1.1,1.3,1.8,1.9c0.8,0.5,1.5,0.9,2.4,1.1
	c0.9,0.2,1.5,0,1.5,0l7.1-10c0.4-0.6,0.7-1.6,0.9-2.9c0.1-1.4,0.3-2.1,0.4-2.2l2.7-4.3L201.2,14.4z"/>
<path class="st4" d="M13,21.1c0-1.4,0-2.9,0-4.3c0-0.7,0.1-1.6-0.1-2.2c-0.1-0.5-0.3-0.6-0.5-1c-0.1-0.2-0.1-0.4-0.1-0.7
	c0-0.1-0.3-0.4-0.3-0.4c-0.1-0.2-0.2-0.7-0.4-0.8c-0.4-0.4-0.2-1.2-0.6-1.6c-0.2-0.2-0.1-0.7-0.3-0.9c-0.2-0.2-0.3-0.6-0.4-0.8
	c-0.2-0.5-0.4-1.1-0.6-1.6c0-0.3-0.2-0.1-0.3-0.3C9.4,6.4,9.5,6.1,9.5,6c0,0-0.4,0-0.4,0C8.8,6.1,8.4,6.7,8.3,7
	c0.1-0.5-2-0.2-2.2-0.2c-0.7,0-1.3,0-2,0c-0.2,0-0.6-0.1-0.9,0C2.7,6.9,2.4,8.5,2.6,8.5c0.1,0,1,0,1,0.1c0,0.5,0,1,0,1.5
	c0,0.4-0.2,0.6-0.2,1.1c0,0.3-0.8,0.3-1.1,0.3c-0.5,0.1-2.5,0-1.9,1.1c0,1.2,0,2.3,0,3.5c0,4.9,0,9.8,0,14.7c0,0.6,0,1.2,0,1.7
	c0,0.4,1.2,0.8,1.6,0.9c2.2,0.8,4.2,0.7,6.4,0.2c0.7-0.2,1.6-0.4,2.2-0.8c0.2-0.1,0.2,0,0.2-0.2c0-0.6,0-1.1,0-1.7
	c0-2.3,0-4.6,0-6.9c0-3.8,0-7.6,0-11.3c0.3,0.2,0.4,0.5,0.6,0.8c0.2,0.2,0.3,0.6,0.5,0.8c0.1,0.1,0.4,0.5,0.5,0.7
	c0.2,0.6,0,1.6,0,2.2c0,2.9,0,5.7,0,8.6c0,1.4,0,2.9,0,4.3c0,0.2-0.2,0.3-0.2,0.6c0,0.3,0,0.3,0.3,0.3c0.2,0,0.2,0,0.3-0.1
	c0.4-0.3,0.3-0.7,0.3-1.3C13,26.8,13,23.9,13,21.1z M10.3,27.1c0,0.3,0,0.6,0,0.9c0,0.7,0,0.6-0.7,0.7c-0.9,0.1-1.8,0.2-2.7,0.3
	c-0.4,0-0.9,0.2-1.3,0.1c-1.5-0.2-3.1-0.4-4.6-0.6c-0.3,0-0.2-0.2-0.2-0.5c0-0.3,0-0.7,0-1c1.6,0.2,3.2,0.3,4.8,0.5
	c0.7,0.1,1.6-0.2,2.2-0.2c0.8-0.1,1.6-0.2,2.4-0.3C10.3,27,10.3,27,10.3,27.1z M10.3,15.1c0,0.3,0,0.6,0,0.9c0,0.7,0,0.6-0.7,0.7
	c-0.9,0.1-1.8,0.2-2.7,0.3c-0.4,0-0.9,0.2-1.3,0.1C4.1,17,2.6,16.8,1,16.6c-0.3,0-0.2-0.2-0.2-0.5c0-0.3,0-0.7,0-1
	c1.6,0.2,3.2,0.3,4.8,0.5c0.7,0.1,1.6-0.2,2.2-0.2c0.8-0.1,1.6-0.2,2.4-0.3C10.3,15.1,10.3,15.1,10.3,15.1z"/>
<path class="st4" d="M135.7,12.5c0.2,0.9,0.8,1.6,1.2,2.4c0.5,1,0.9,2.1,1.4,3.2c0.4,0.8,0.7,1.7,1.2,2.4c0.5,0.7,0.6,1.5,0.6,2.3
	c-0.1,2.4,0.1,4.8,0.1,7.3c0,1.1,0.1,2.3,0,3.4c0,0.3-0.2,0.6-0.5,0.7c-0.2,0-0.7,0.1-0.8-0.2c-0.1-0.4,0.4-0.4,0.5-0.7
	c0.1-0.4,0-0.8,0-1.2c0-1.3,0-2.6,0-3.9c0-2.3-0.1-4.5-0.7-6.7c-0.1-0.3-0.3-0.9-0.5-1.1c-0.2-0.2-0.2-0.6-0.4-0.8
	c-0.6-0.6-0.9-1.4-1.4-2.1c-0.2-0.3-0.5-0.6-0.7-0.9c-0.2-0.2-0.2-0.6-0.4-0.7c-0.4-0.3-1.2-0.1-1.7-0.2c-0.4,0-1.3-0.2-1.6,0.1
	c-0.2,0.2-0.1,0.9-0.1,1.1c0,0.4-0.2,1.1,0.2,1.3c0.3,0.1,0.7,0.1,1,0.1c0.6,0,1.1,0.2,1.6,0.3c1,0.2,1.6,0.6,2.3,1.3
	c0.8,0.8,0.9,1.8,1.3,2.9c0.4,1.2,0.6,2.3,0.5,3.6c-0.2,1.9-1.1,3.9-2.3,5.4c-1.5,1.9-4.1,2.3-6.2,2.8c-1.1,0.2-2.2,0.4-3.3,0.1
	c-0.9-0.3-1.9-0.6-2.8-0.9c-0.6-0.2-1-0.7-1.6-1c-0.3-0.2-0.5-0.5-0.8-0.8c-0.3-0.3-0.7-0.5-0.9-0.9c-1.1-1.9-1.6-3.9-1.6-6.1
	c0.1-1.7,0.5-3.4,1.5-4.7c0.5-0.7,0.9-1.1,1.7-1.4c0.9-0.3,1.7-0.5,2.6-0.8c0.5-0.2,1.5,0.2,1.6-0.4c0.1-0.4,0.2-1.9-0.3-1.9
	c-0.4,0-0.2-5-0.2-5.5c-0.5,0-1.1,0.1-1.6-0.1c-0.2-0.1-0.3-0.3-0.3-0.5c0-0.2,0.1-0.3,0.2-0.4c0.1-0.2,0.1-0.2,0.2-0.4
	c0.2-0.4,0.5-0.5,0.9-0.5c0.5,0,0.6-0.3,1.1-0.3c1.3,0,2.6,0,4,0c0.2,0,1.5,0.1,1.5,0c0.1-0.3,0-0.6,0-0.8c0-0.3,0.6-0.2,0.8-0.2
	c0.4,0,0.6,0.3,0.6,0.7c0,0.2-0.2,0.3-0.1,0.4c0.1,0.1,0.3,0.2,0.4,0.3c0.3,0.3,0.3,0.9,0.5,1.2C134.9,10.5,134.9,11.8,135.7,12.5
	L135.7,12.5z"/>
<g transform="matrix(1.0, 0.0, 0.0, 1.0, 5.45, 9.15)scale(0.85,0.85)">
	<path class="st5" d="M80.7,3.3l8,0.6l-5.9,4.9l6.1,4.9L81,14.4l1.9,8.4l-3.3-2.5V8.6l-3.8-6.2h-4.5l-0.8,0.1
		c-0.2,0.1-0.4,0.3-0.4,0.7c0,0.6,0.3,0.9,1,1v1.7L69.7,7h-0.6c-0.4,0-0.6,0.2-0.6,0.6v2.6l1,0.9V13h0.5v2h-0.5v0.8h-0.3V17
		l-6.7,3.6l3.3-8.3l-8.1-3.1l8.3-3l-5.6-6.9l8.9,1.5l1.3-9.3l5,8.1l7.7-5.4L80.7,3.3 M78.7,9.2v10.5L76.5,18v-2.2H76V15h-0.4v-2H76
		v-1.9l1-0.9V8.2L78.7,9.2"/>
	<path class="st6" d="M70.9,5.9V4.2c-0.7-0.1-1-0.4-1-1c0-0.4,0.1-0.6,0.4-0.7l0.8-0.1h4.5l3.8,6.2v13l-1.9,1l-0.6-0.1
		c-0.1-0.2-0.1-0.5,0.2-0.7c0.2-0.2,0.6-0.4,1-0.7l0.6-0.3V9.2l-1.7-1v1.9l-1,0.9V13h-0.4v2H76v2.1h-0.4v2H76v2.1h-0.4v2H76V25
		l1,1.7v1.4c0,0.4-0.2,0.6-0.6,0.6h-7.4c-0.4,0-0.6-0.2-0.6-0.6v-1.4l1-1.7v-1.9h0.5v-2h-0.5v-2.1h0.5v-2h-0.5V15h0.5v-2h-0.5v-1.9
		l-1-0.9V7.5c0-0.4,0.2-0.6,0.6-0.6h0.6L70.9,5.9"/>
</g>
</svg>
