<?xml version="1.0" encoding="utf-8"?>
<!-- Generator: Adobe Illustrator 23.0.0, SVG Export Plug-In . SVG Version: 6.00 Build 0)  -->
<svg version="1.1" id="图层_1" xmlns="http://www.w3.org/2000/svg" xmlns:xlink="http://www.w3.org/1999/xlink" x="0px" y="0px"
	 viewBox="0 0 16.4 20.4" style="enable-background:new 0 0 16.4 20.4;" xml:space="preserve">
<style type="text/css">
	.st0{fill-rule:evenodd;clip-rule:evenodd;fill:#898989;}
</style>
<g transform="matrix(1.0, 0.0, 0.0, 1.0, 0.95, -0.55)">
	<path class="st0" d="M0.1,7.2l2.7-0.1l0.1,1.4l0.3,1.2L3.3,19l-3.9,0l0.2-9.3L0,8.4L0.1,7.2 M0.1,6.6l0.9-5.3l0-0.3l1,0l0.8,5.6
		L0.1,6.6 M-0.5,19.5l3.9,0l0,0.1l0,0.3L3.2,20l-0.7,0.4l-0.9,0.2l-0.2,0l-0.3,0.1c-0.3-0.1-0.6-0.1-0.9-0.2l-0.7-0.4l-0.1-0.2
		L-0.5,19.5"/>
</g>
<g transform="matrix(1.0, 0.0, 0.0, 1.0, 0.95, -0.55)">
	<path class="st0" d="M5.9,7.2l2.7-0.1l0.1,1.4L9,9.7L9.2,19l-3.9,0l0.2-9.3l0.4-1.3L5.9,7.2 M5.9,6.6l0.9-5.3l0-0.3l1,0l0.8,5.6
		L5.9,6.6 M5.3,19.5l3.9,0l0,0.1l0,0.3L9,20l-0.7,0.4l-0.9,0.2l-0.2,0l-0.3,0.1c-0.3-0.1-0.6-0.1-0.9-0.2l-0.7-0.4l-0.1-0.2
		L5.3,19.5"/>
</g>
<g transform="matrix(1.0, 0.0, 0.0, 1.0, 0.95, -0.55)">
	<path class="st0" d="M11.8,7.2l2.7-0.1l0.1,1.4l0.3,1.2l0.1,9.3l-3.9,0l0.2-9.3l0.4-1.3L11.8,7.2 M11.8,6.6l0.9-5.3l0-0.3l1,0
		l0.8,5.6L11.8,6.6 M11.2,19.5l3.9,0l0,0.1l0,0.3L14.9,20l-0.7,0.4l-0.9,0.2l-0.2,0l-0.3,0.1c-0.3-0.1-0.6-0.1-0.9-0.2l-0.7-0.4
		l-0.1-0.2L11.2,19.5"/>
</g>
</svg>
