<?xml version="1.0" standalone="no"?><!DOCTYPE svg PUBLIC "-//W3C//DTD SVG 1.1//EN" "http://www.w3.org/Graphics/SVG/1.1/DTD/svg11.dtd"><svg t="1559358629805" class="icon" style="" viewBox="0 0 1024 1024" version="1.1" xmlns="http://www.w3.org/2000/svg" p-id="8352" xmlns:xlink="http://www.w3.org/1999/xlink" width="200" height="200"><defs><style type="text/css"></style></defs><path d="M512 0.725333c69.461333 0 135.722667 13.482667 198.826667 40.490667 63.061333 27.008 117.376 63.317333 162.986666 108.928 45.653333 45.653333 81.962667 99.968 108.970667 163.029333 27.008 63.104 40.533333 129.365333 40.533333 198.826667 0 69.461333-13.525333 135.722667-40.533333 198.826667-27.008 63.061333-63.317333 117.376-108.928 162.986666-45.653333 45.653333-99.968 81.962667-163.029333 108.970667-63.104 27.008-129.365333 40.533333-198.826667 40.533333-69.461333 0-135.722667-13.525333-198.826667-40.533333-63.061333-27.008-117.376-63.317333-162.986666-108.928-45.653333-45.653333-81.962667-99.968-108.970667-163.029333A499.968 499.968 0 0 1 0.682667 512c0-69.461333 13.525333-135.722667 40.533333-198.826667 27.008-63.061333 63.317333-117.376 108.928-162.986666C195.84 104.533333 250.112 68.181333 313.173333 41.173333A499.968 499.968 0 0 1 512 0.682667z m0 92.970667c-56.661333 0-110.805333 11.093333-162.517333 33.194667-51.669333 22.186667-96.170667 51.882667-133.418667 89.173333-37.290667 37.290667-66.986667 81.749333-89.173333 133.418667A407.765333 407.765333 0 0 0 93.696 512c0 56.661333 11.093333 110.848 33.194667 162.517333 22.144 51.626667 51.882667 96.128 89.173333 133.418667 37.290667 37.290667 81.792 66.986667 133.418667 89.173333 51.626667 22.144 105.813333 33.194667 162.517333 33.194667 56.661333 0 110.848-11.093333 162.517333-33.194667 51.626667-22.186667 96.128-51.882667 133.418667-89.173333 37.290667-37.290667 67.029333-81.749333 89.173333-133.418667A408.746667 408.746667 0 0 0 930.304 512c0-56.661333-11.050667-110.848-33.194667-162.517333-22.186667-51.626667-51.882667-96.128-89.173333-133.418667-37.248-37.290667-81.749333-66.986667-133.418667-89.173333A408.362667 408.362667 0 0 0 512 93.696z m0 92.970667c12.8 0 23.808 4.522667 32.853333 13.610666 9.088 9.045333 13.653333 20.010667 13.653334 32.853334v259.626666l125.952 125.610667c8.96 8.96 13.44 19.968 13.44 33.066667 0 13.056-4.48 24.064-13.44 33.024-8.96 8.96-19.925333 13.44-33.024 13.44-13.056 0-24.064-4.48-33.024-13.44l-139.434667-139.434667a44.928 44.928 0 0 1-13.44-33.066667V233.088c0-12.8 4.522667-23.765333 13.610667-32.853333a44.8 44.8 0 0 1 32.853333-13.610667z" p-id="8353" fill="#3683B2"></path></svg>