<?xml version="1.0" encoding="utf-8"?>
<!-- Generator: Adobe Illustrator 23.0.0, SVG Export Plug-In . SVG Version: 6.00 Build 0)  -->
<svg version="1.1" id="图层_1" xmlns="http://www.w3.org/2000/svg" xmlns:xlink="http://www.w3.org/1999/xlink" x="0px" y="0px"
	 viewBox="0 0 31.4 28" style="enable-background:new 0 0 31.4 28;" xml:space="preserve">
<style type="text/css">
	.st0{fill:#3683B2;}
	.st1{fill:none;}
</style>
<path class="st0" d="M30.9,12.6c-0.3,0.2-0.7,0.3-1,0.3c-0.5-0.1-1.1-0.6-1.5-0.9c-1.6-1-3.4-1.8-5.3-2.2C22,9.6,21,9.6,19.9,9.7
	c-1.4,0.1-2.8,0.4-4.2,0.5c-0.8,0.1-1.4,0.1-2.1-0.2c-0.3-0.1-0.6-0.2-0.8-0.3c-0.2-0.1-0.3-0.2-0.4,0c-0.1,0.2-0.2,0.4-0.4,0.5
	c-0.3,0.2-0.3,0.2-0.2,0.5c0.1,0.2,0.3,0.5,0.4,0.7c0.2,0.3,0.8,0.9,0.8,1.2c0,0.3,0.9,0.8,1.1,1c0.1,0.1,0.3,0,0.2,0.2
	c-0.1,0.1-0.2,0.3-0.3,0.2c-0.2-0.1-0.4-0.3-0.7-0.4c0.2,0.6,0.4,1.3,0.5,2c0.1,1,0.2,2,0.5,3c0.5,1.8,1.4,3.5,2.6,4.9
	c0.6,0.7,1.3,1.2,2,1.8c0.3,0.2,1,0.6,1,1c0,0.3,0.1,0.7-0.1,0.9c-0.1,0.1-0.2,0.2-0.3,0.4c-0.1,0.3,0,0.3-0.3,0.4
	c-0.2,0.1-0.4,0.2-0.5,0.2c-0.3,0.1-0.6-0.2-0.9-0.3c-0.8-0.5-1.5-1-2.2-1.6c-2.4-2.1-4.3-5.1-4.7-8.4c-0.2-1.5-0.4-2.9-0.5-4.4
	c0-0.3-0.3-0.4-0.4-0.6c-0.2-0.4-0.4-0.7-0.6-1.1C9.1,11.1,8.5,10.3,8,10C7.3,9.7,6.6,9.5,5.9,9.2C5.5,9,5.1,8.6,4.8,8.3
	C3.3,7.1,1.8,5.9,0.3,4.7C0.2,4.6,0.1,4.5,0,4.4c0,0,0.1-0.4,0.2-0.4c0.1-0.1,0.3-0.1,0.4,0C1.3,4.2,2,4.5,2.8,4.7
	c1,0.4,1.9,0.7,2.9,1.1c0.7,0.3,0.9,0.3,0.9,1c0,0.4,0.6,0.4,0.9,0.1c0,0,0.1-0.3,0.2-0.4C7.8,6.4,7.9,6.2,8.1,6
	C8.4,5.6,8,5.5,7.7,5.6C7.4,5.7,7.2,5.6,7,5.3C5.9,3.9,4.8,2.4,3.7,1C3.6,0.8,3.5,0.6,3.3,0.4C3,0,3.5,0,3.8,0
	c0.1,0,0.3,0.2,0.4,0.2C4.5,0.5,4.9,0.7,5.2,1C6.1,1.6,7,2.2,7.8,2.8C8.1,3,8.4,3.2,8.7,3.4c0.1,0.1,0.4,0.1,0.4,0.2
	c0.5,0.6,0.9,1.3,1.4,1.9c0.2,0.3,0.4,0.5,0.6,0.8c0.2,0.2,0.7,0.2,1,0.3c0.7,0.2,1.4,0.4,2.2,0.6C14.9,7.2,15.7,7,16.5,7
	c1.4-0.1,2.8-0.1,4.2-0.2c1.1,0,2.3,0,3.4,0.2c0.6,0.2,1.2,0.2,1.8,0.5c0.7,0.4,1.3,0.7,2,1.1c1.1,0.6,2.2,1.5,3.2,2.2
	C31.5,11.3,31.5,12.3,30.9,12.6z M15.8,12.2c-0.2-0.4-0.4-0.4-0.8-0.6c-0.3-0.1-0.7-0.4-1-0.3c-0.3,0-0.1,0.5,0.1,0.5
	c0.2,0.1,0.4,0.1,0.7,0.2C15,12.1,15.6,12.4,15.8,12.2z M13.6,12c-0.2-0.1-0.3,0.2-0.1,0.4c0.3,0.3,0.8,0.4,1.1,0.6
	c0.2,0.1,0.7,0.3,0.6-0.2c-0.4-0.2-0.7-0.4-1.1-0.6C13.9,12.1,13.8,12.1,13.6,12z M16.3,11c-0.1-0.1-0.3-0.1-0.5-0.1
	c-0.4-0.1-0.8-0.1-1.2-0.2c-0.2,0-0.2,0.5,0,0.5c0.1,0.1,0.3,0,0.4,0.1c0.4,0,0.8,0.1,1.2,0.1C16.4,11.4,16.3,11.1,16.3,11z"/>
<rect id="sliceCopy_x5F_5_1_" x="35.4" y="-6" class="st1" width="29" height="40"/>
<rect id="sliceCopy_x5F_4_1_" x="-4" y="-6" class="st1" width="39.4" height="40"/>
</svg>
