<?xml version="1.0" encoding="UTF-8" standalone="no"?>
<svg xmlns:xlink="http://www.w3.org/1999/xlink" height="17.1px" width="15.2px" xmlns="http://www.w3.org/2000/svg">
  <g transform="matrix(1.0, 0.0, 0.0, 1.0, 0.0, 0.0)">
    <path d="M15.2 0.6 L15.2 8.85 Q15.2 11.8 13.15 14.05 11.1 16.3 7.75 17.05 L7.6 17.1 7.45 17.05 Q4.1 16.3 2.05 14.05 0.0 11.8 0.0 8.85 L0.0 0.6 0.6 0.45 7.6 0.0 14.6 0.45 15.2 0.6 M14.5 1.2 L7.6 0.7 0.7 1.2 0.7 8.85 Q0.7 11.6 2.65 13.7 4.55 15.65 7.6 16.35 10.65 15.65 12.5 13.7 14.5 11.6 14.5 8.85 L14.5 1.2" fill="#ffffff" fill-rule="evenodd" stroke="none"/>
    <path d="M14.5 1.2 L14.5 8.85 Q14.5 11.6 12.5 13.7 10.65 15.65 7.6 16.35 4.55 15.65 2.65 13.7 0.7 11.6 0.7 8.85 L0.7 1.2 7.6 0.7 14.5 1.2" fill="#666666" fill-rule="evenodd" stroke="none"/>
  </g>
</svg>
