<?xml version="1.0" encoding="utf-8"?>
<!-- Generator: Adobe Illustrator 23.0.0, SVG Export Plug-In . SVG Version: 6.00 Build 0)  -->
<svg version="1.1" id="图层_1" xmlns="http://www.w3.org/2000/svg" xmlns:xlink="http://www.w3.org/1999/xlink" x="0px" y="0px"
	 viewBox="0 0 23.2 26.9" style="enable-background:new 0 0 23.2 26.9;" xml:space="preserve">
<style type="text/css">
	.st0{fill-rule:evenodd;clip-rule:evenodd;fill:#E7AE41;fill-opacity:0.4;}
	.st1{fill-rule:evenodd;clip-rule:evenodd;fill:#BF8B30;}
	.st2{fill:none;stroke:#BF8B30;stroke-width:0.5;stroke-linecap:round;stroke-linejoin:round;}
</style>
<g transform="matrix(1.0, 0.0, 0.0, 1.0, 1.75, 0.2)scale(0.8,0.8)translate(0,3)">
	<path class="st0" d="M21.3,3.6v4.3H7.1V3.6H21.3"/>
	<path class="st1" d="M21.3,3.6H7.1v4.3h14.2V3.6 M25,7.1h0.8c0.5,0,0.7,0.2,0.7,0.7v6.7c0,0.5-0.2,0.7-0.7,0.7H25v13.3
		c0,0.9-0.5,1.4-1.4,1.4H4.9c-0.9,0-1.4-0.5-1.4-1.4V2.1c0-0.9,0.5-1.4,1.4-1.4h6.6v-1c0-0.1,0-0.1,0.1-0.1h0.7l0.1,0.1v1h11.2
		c0.9,0,1.4,0.5,1.4,1.4V7.1 M21.3,12H10.1v13.3h11.2V12"/>
	<path class="st2" d="M3.4,19.7l-1.7-0.1c-0.6-0.1-1.1-0.5-1.6-1.1C-0.4,18-0.7,17-1,15.6c-0.2-1.3-0.3-3.2-0.3-5.8V7.7V5.4L-1.1,3
		c0.2-0.9,0.5-1.8,0.9-2.8l0.3-0.5l0.8-0.8l0.9-0.7C2.5-2.3,3.6-2.7,5-2.7l0.9,0l2.5,0.2l2,0.4c0.9,0.3,1.4,0.6,1.5,0.8l0.1,0.7v0.2
		"/>
	<path class="st1" d="M13.6,22l0.2,0.2v1.3l-0.2,0.1h-1.3c-0.2,0-0.3,0-0.3-0.1v-1.3C12,22,12,22,12.2,22H13.6 M16.8,22.2v1.3
		l-0.3,0.1h-1.3L15,23.4v-1.3l0.2-0.2h1.3L16.8,22.2 M19.5,23.6h-1.4l-0.3-0.1v-1.3l0.3-0.2h1.4l0.3,0.2v1.3L19.5,23.6 M19.8,20.6
		l-0.3,0.1h-1.4l-0.3-0.1v-1.3c0-0.2,0.1-0.3,0.3-0.3h1.4l0.3,0.3V20.6 M17.9,16.4l0.3-0.2h1.4l0.3,0.2v1.3l-0.3,0.1h-1.4l-0.3-0.1
		V16.4 M15,19.3c0-0.2,0.1-0.3,0.2-0.3h1.3l0.3,0.3v1.3l-0.3,0.1h-1.3L15,20.6V19.3 M12,19.3c0-0.2,0.1-0.3,0.3-0.3h1.3l0.2,0.3v1.3
		l-0.2,0.1h-1.3c-0.2,0-0.3-0.1-0.3-0.1V19.3 M13.8,17.7l-0.2,0.1h-1.3c-0.2,0-0.3,0-0.3-0.1v-1.3c0-0.1,0.1-0.2,0.3-0.2h1.3
		l0.2,0.2V17.7 M15,16.4l0.2-0.2h1.3l0.3,0.2v1.3l-0.3,0.1h-1.3L15,17.7V16.4 M12.2,15L12,14.8v-1.2c0-0.1,0.1-0.2,0.3-0.2h1.3
		l0.2,0.2v1.2L13.6,15H12.2 M19.8,14.8L19.5,15h-1.4l-0.3-0.2v-1.2l0.3-0.2h1.4l0.3,0.2V14.8 M16.5,13.4l0.3,0.2v1.2L16.5,15h-1.3
		L15,14.8v-1.2l0.2-0.2H16.5"/>
</g>
</svg>
