<?xml version="1.0" encoding="utf-8"?>
<!-- Generator: Adobe Illustrator 23.0.0, SVG Export Plug-In . SVG Version: 6.00 Build 0)  -->
<svg version="1.1" id="图层_1" xmlns="http://www.w3.org/2000/svg" xmlns:xlink="http://www.w3.org/1999/xlink" x="0px" y="0px"
	 viewBox="0 0 84.2 40" style="enable-background:new 0 0 84.2 40;" xml:space="preserve">
<style type="text/css">
	.st0{fill:none;}
	.st1{fill-rule:evenodd;clip-rule:evenodd;fill:#898989;}
</style>
<rect id="sliceCopy_x5F_20_1_" x="82.2" class="st0" width="84" height="40"/>
<rect id="sliceCopy_x5F_19_1_" x="-0.8" class="st0" width="83" height="40"/>
<g transform="matrix(1.0, 0.0, 0.0, 1.0, 0.0, 0.0)">
	<path class="st1" d="M63.2,9.3C75.8,14.1,82.8,21.7,84.2,32c-10.1-9-20.5-13.6-31.3-13.9l-0.3,0.4l-2,0.2c-2.1,2.2-4.2,3.4-6.4,3.4
		l-0.7-1.2c-0.2-0.3-0.5-0.7-0.9-1c-0.8-0.7-2-1.1-3.6-1.1c-2,0-4.3,0.7-6.9,2.2c-1.2,0.6-2.3,1.3-3.4,2.1c-1-0.1-2.2-0.1-3.4,0.1
		c-2.6,0.3-4.7,1-6.3,2.2c-0.4,0.3-0.6,0.7-0.8,1.2l-0.9,3.5c-0.3,0.7-0.6,1.3-1.1,1.8l-0.4,0.4c-1.2,1.2-2.6,1.9-4.3,1.9
		s-3.2-0.6-4.4-1.9c-1.2-1.2-1.9-2.7-1.9-4.4c0-0.6,0.2-1.4,0.5-2.4c0.5-1,1-1.8,1.7-2.5c2.3-2.5,5.1-4.5,8.3-6.3
		c3.2-1.7,7.3-3.2,12.3-4.4l3.5-0.5l3.4-0.2l3.4-0.3l3.4-0.5c1.9-0.5,3.6-1.1,5.1-1.9l3.8-2.1l2.7,2c0.3-0.2,0.4-0.4,0.3-0.7l-1-1.2
		l2.9,0.4l0.9,1.3c0.1,0.2,0.3,0.3,0.5,0.2l0.2-1.3l2,1.9l0.2-1.3l1.9,1.9V8.5l2,1.9V9.3 M58.3,12.3c0,0.3,0.1,0.6,0.3,0.8
		s0.5,0.3,0.8,0.3c0.3,0,0.5-0.1,0.7-0.3c0.3-0.2,0.4-0.5,0.4-0.8c0-0.3-0.1-0.6-0.4-0.8c-0.2-0.2-0.5-0.3-0.7-0.3
		c-0.3,0-0.6,0.1-0.8,0.3C58.4,11.8,58.3,12,58.3,12.3 M57.4,11.5c0-0.4-0.1-0.7-0.4-1c-0.3-0.3-0.6-0.4-1-0.4c-0.4,0-0.7,0.1-1,0.4
		c-0.3,0.3-0.4,0.6-0.4,1c0,0.4,0.1,0.7,0.4,1c0.2,0.3,0.6,0.4,1,0.4c0.4,0,0.8-0.1,1-0.4C57.3,12.3,57.4,11.9,57.4,11.5 M63,12.6
		c-0.1-0.2-0.3-0.3-0.6-0.3c-0.3,0-0.5,0.1-0.7,0.3c-0.2,0.2-0.3,0.4-0.3,0.6c0,0.2,0.1,0.4,0.3,0.7l0.7,0.3l0.6-0.3l0.3-0.7
		C63.3,13,63.2,12.8,63,12.6 M14.6,24.8c-0.9-0.9-1.9-1.3-3.2-1.3c-1.2,0-2.3,0.4-3.1,1.3S7,26.7,7,27.9c0,1.2,0.4,2.3,1.3,3.1
		c0.9,0.9,1.9,1.3,3.1,1.3c1.3,0,2.3-0.4,3.2-1.3c0.9-0.9,1.3-1.9,1.3-3.1C15.9,26.7,15.4,25.6,14.6,24.8"/>
</g>
</svg>
