<?xml version="1.0" encoding="utf-8"?>
<!-- Generator: Adobe Illustrator 23.0.0, SVG Export Plug-In . SVG Version: 6.00 Build 0)  -->
<svg version="1.1" id="图层_1" xmlns="http://www.w3.org/2000/svg" xmlns:xlink="http://www.w3.org/1999/xlink" x="0px" y="0px"
	 viewBox="0 0 93 40" style="enable-background:new 0 0 93 40;" xml:space="preserve">
<style type="text/css">
	.st0{fill:none;}
	.st1{fill-rule:evenodd;clip-rule:evenodd;fill:#898989;}
</style>
<rect id="sliceCopy_x5F_19_1_" x="92.2" class="st0" width="83" height="40"/>
<rect id="sliceCopy_x5F_18_1_" x="-0.8" class="st0" width="93" height="40"/>
<g transform="matrix(1.0, 0.0, 0.0, 1.0, 0.0, 0.0)">
	<path class="st1" d="M53.4,21.2c-0.2,0.2-0.3,0.4-0.3,0.6c0,0.2,0.1,0.4,0.3,0.5c0.2,0.2,0.4,0.3,0.6,0.3l0.5-0.3l0.3-0.5
		c0-0.2-0.1-0.4-0.3-0.6C54.4,21,54.2,21,54,21C53.7,21,53.5,21,53.4,21.2 M55.2,23.1h-5.1l-0.4,0.3h-2.5c-0.6,0.5-0.4,1.2,0.5,2.2
		c-1.6,0.9-2.7,0.2-3.5-2c-10.9,0.4-22.3,0.4-34,0c-2.6-0.1-5,0.3-7.5,1.2c-1.8-2.9-1.8-5.6,0-8.2c2.5,0.7,5,1,7.6,0.9
		c11.5-0.4,22.9-0.5,33.9-0.1c0.6-0.7,0.6-1.4-0.1-2.3c1.6-0.5,2.6,0.3,3.2,2.4h2.4l0.4,0.5c18.8,0,33.1,1,42.9,3.1
		c-5.5,1.3-18.1,1.9-37.6,1.9L55.2,23.1"/>
</g>
</svg>
