<?xml version="1.0" encoding="utf-8"?>
<!-- Generator: Adobe Illustrator 23.0.0, SVG Export Plug-In . SVG Version: 6.00 Build 0)  -->
<svg version="1.1" id="图层_1" xmlns="http://www.w3.org/2000/svg" xmlns:xlink="http://www.w3.org/1999/xlink" x="0px" y="0px"
	 viewBox="0 0 93 40" style="enable-background:new 0 0 93 40;" xml:space="preserve">
<style type="text/css">
	.st0{fill:none;}
	.st1{fill-rule:evenodd;clip-rule:evenodd;fill:#898989;}
</style>
<rect id="sliceCopy_x5F_19_1_" x="92.2" class="st0" width="83" height="40"/>
<rect id="sliceCopy_x5F_18_1_" x="-0.8" class="st0" width="93" height="40"/>
<g transform="matrix(1.0, 0.0, 0.0, 1.0, 0.0, 0.0)">
	<path class="st1" d="M84.1,23.3c-2.1,1.1-4.5,1.7-7.1,1.9c-2.6,0.1-4.8-0.1-6.5-0.6l-7.5-2c-3.2-0.8-6-1.2-8.4-1.2l-0.1-0.3
		L54,20.7l-0.6-0.2h-0.2c-0.1,1.3-0.5,2.2-1,2.9c-4.8-1-9.8-1.6-15.1-1.7v-0.2h-0.3v0.2c-10.2-0.1-17,0.4-20.2,1.4
		c-3.6,1.1-7.3,3-11,5.6c-1.8,0.1-2-1.4-0.6-4.7c1.7-2.4,4.5-4.4,8.4-6.2c4-1.8,11.7-2.9,23.3-3.5v0.2H37v-0.2l10.3-0.3l1-0.6
		l0.3,0.3l1.1-0.7l0.4,0.2l1.1-0.6l0.4,0.2c1.1-0.8,1.9-1.2,2.5-1.1c0.2,0.1,0.4,0.1,0.4,0.2c0,0.2-0.1,0.3-0.2,0.4
		c-0.3,0.1-0.5,0.3-0.7,0.7c-0.1,0.2-0.2,0.4-0.1,0.6l0.4,0.5l0.7,0.2v0.8h0.2v-0.6l3.1,0.4v0.6h0.3v-0.7c5.6,0.5,10.8,0.3,15.4-0.6
		l15.1,6.1L84.1,23.3"/>
</g>
</svg>
