<?xml version="1.0" encoding="utf-8"?>
<!-- Generator: Adobe Illustrator 23.0.0, SVG Export Plug-In . SVG Version: 6.00 Build 0)  -->
<svg version="1.1" id="图层_1" xmlns="http://www.w3.org/2000/svg" xmlns:xlink="http://www.w3.org/1999/xlink" x="0px" y="0px"
	 viewBox="0 0 93 40" style="enable-background:new 0 0 93 40;" xml:space="preserve">
<style type="text/css">
	.st0{fill:none;}
	.st1{fill-rule:evenodd;clip-rule:evenodd;fill:#898989;}
</style>
<rect id="sliceCopy_x5F_19_1_" x="92.2" class="st0" width="83" height="40"/>
<rect id="sliceCopy_x5F_18_1_" x="-0.8" class="st0" width="93" height="40"/>
<g transform="matrix(1.0, 0.0, 0.0, 1.0, 0.0, 0.0)">
	<path class="st1" d="M5.3,20.5c0.2,0.2,0.4,0.2,0.6,0.2c0.2,0,0.4-0.1,0.6-0.2c0.2-0.2,0.3-0.4,0.3-0.6c0-0.2-0.1-0.5-0.3-0.6
		c-0.2-0.2-0.4-0.2-0.6-0.2c-0.2,0-0.4,0.1-0.6,0.2c-0.2,0.2-0.3,0.4-0.3,0.6C5.1,20.2,5.1,20.4,5.3,20.5 M87.3,17.5l4.9,0.9
		l-9.7,7.4l-15.7-0.1c-0.2-0.5-0.5-0.6-1-0.4l-0.3-0.2l-0.3-0.1c-0.1,0-0.2,0-0.3,0.1l-0.1,0.1l-0.3-0.1l-0.7-0.1l-0.7,0.1l-0.3,0.1
		l-0.1-0.1l-0.3-0.1c-0.1,0-0.2,0-0.3,0.1l-0.1,0.1L62,25.2l-0.3-0.1c-0.1,0-0.2,0-0.3,0.1l-0.1,0.1L61,25.2l-0.7-0.1l-0.7,0.1
		c-0.1,0-0.2,0.1-0.2,0.1l-0.1-0.1l-0.3-0.1c-0.1,0-0.2,0-0.3,0.1l-0.1,0.1l-0.1-0.1l-0.3-0.1c-0.1,0-0.2,0-0.3,0.1l-0.1,0.1
		l-0.3-0.1l-0.7-0.1L56,25.2l-0.3,0.1l-0.1-0.1l-0.3-0.1l-0.3,0.1L55,25.3l-0.1-0.1l-0.3-0.1l-0.3,0.1l-0.1,0.1l-0.3-0.1l-0.7-0.1
		l-0.7,0.1l-0.2,0.1l-0.1-0.1l-0.3-0.1c-0.1,0-0.2,0-0.3,0.1l-0.1,0.1c-0.4-0.3-0.8-0.1-1.1,0.6h-3.8l-0.1,0.4l-0.2,0.9
		c-0.3,0.9-0.7,1.3-1.3,1.4c-0.3,0-0.6,0-0.8-0.2l-0.5-0.5l-0.5-0.8l-0.8-0.9c-0.8-0.6-1.7-0.9-2.9-1.1c-1-0.1-2.8-0.1-5.4,0.1
		l-7.7,0.2l-7.2-0.1L19,25.2c-0.1-0.1-0.2-0.1-0.3-0.1l-0.2,0.1l-0.1,0.2h-0.4l-0.4,0l-0.1-0.2l-0.2-0.1c-0.1,0-0.2,0-0.2,0.1
		L17,25.5v0l-0.7,0l-0.1-0.2c-0.1-0.1-0.1-0.1-0.2-0.1l-0.3,0.1l-0.1,0.2l0,0.1L15,25.7l-0.1-0.2c-0.1-0.1-0.1-0.1-0.2-0.1
		c-0.1,0-0.2,0-0.3,0.1c-0.1,0.1-0.1,0.2-0.1,0.3l0,0.1L13.8,26l-0.1-0.1l-0.3-0.1c-0.1,0-0.2,0-0.2,0.1c-0.1,0.1-0.1,0.1-0.1,0.2
		l0,0.1l-0.3,0.2l-0.2,0.2l-0.2-0.1c-0.1,0-0.2,0-0.3,0.1c-0.1,0.1-0.1,0.2-0.1,0.3l0.1,0.2l0.1,0.1l0,0c-0.2,0.4-0.5,0.6-0.9,0.7
		l-1.3-0.1L9,27.1L7.3,25l-1.6-2.1c-0.1-0.2-0.2-0.4-0.2-0.6l0.1-0.2l-0.6,0l-1.7-2L5,17.9l0.4,0l0.1-0.4c0.1-0.3,0.3-0.5,0.5-0.6
		l1.7-0.3l0.1,0.3L8.2,17l0.3-0.2l0.1-0.3v-0.1l0.6-0.1l0.1,0.3c0.1,0.1,0.2,0.2,0.3,0.2l0.4-0.2l0.1-0.3v0l0.6-0.1l0.1,0.3
		c0.1,0.1,0.2,0.1,0.3,0.1l0.4-0.1l0.1-0.3v-0.1l0.7-0.1l0.1,0.3c0.1,0.1,0.2,0.2,0.3,0.2l0.3-0.2l0.2-0.3v0l0.6,0l0.1,0.3l0.4,0.1
		l0.3-0.1L15,16v0l0.6,0l0.1,0.3c0.1,0.1,0.2,0.1,0.4,0.1l0.3-0.1l0.1-0.3v0l6.1-0.2l10.5,0.3l3.2,0.2v0l0.1,0.4
		c0.1,0.1,0.2,0.1,0.3,0.1l0.4-0.1l0.1-0.3l0.8,0l0.1,0.3l0.4,0.1c0.1,0,0.2,0,0.3-0.1l0.1-0.4v0l0.8-0.1l0.1,0.3
		c0.1,0.1,0.2,0.1,0.3,0.1l0.3-0.1l0.2-0.4v-0.1l0.7-0.2l0.1,0.1c0.1,0.1,0.2,0.2,0.3,0.2l0.3-0.2l0.2-0.3l-0.1-0.2l0.7-0.6l0.3,0.1
		l0.3-0.1l0.1-0.3L43.7,14l-0.1-0.1c0.3-0.5,0.6-0.8,1-1l0.7-0.1c0.5,0.1,0.8,0.6,1.1,1.5l0.3,1.3L58,15.8
		c8.3,0.1,14.3,0.3,17.9,0.5L87.3,17.5"/>
</g>
</svg>
